<svg width="393" height="231" viewBox="0 0 393 231" fill="none" xmlns="http://www.w3.org/2000/svg">
<path fill-rule="evenodd" clip-rule="evenodd" d="M53.6458 1.28414C52.2442 1.97371 50.2189 3.68919 49.1434 5.09744C47.609 7.10561 46.6325 7.65726 44.6064 7.65726C42.8511 7.65726 41.2409 8.35679 39.5761 9.84165C37.4481 11.741 37.0844 12.6283 36.7944 16.6308C36.4868 20.8816 36.6364 21.431 38.7384 23.7809C40.7484 26.0281 41.6375 26.3958 46.3033 26.913C49.2109 27.2356 55.9051 27.4876 61.1793 27.4739C66.4535 27.4601 72.7657 27.1996 75.206 26.8954C78.4541 26.4908 80.1641 25.822 81.588 24.3992C82.6581 23.3303 83.8081 21.2402 84.1441 19.7545C84.5407 17.9969 84.4165 16.2516 83.7881 14.7598C83.2573 13.4979 82.0559 11.7525 81.1184 10.8798C80.181 10.0079 77.9869 9.05555 76.2424 8.76363C73.8627 8.36522 72.4281 7.48564 70.5002 5.24302C69.0864 3.59878 66.946 1.74538 65.7431 1.12477C64.541 0.503399 61.8996 0.00308367 59.8751 0.0130441C57.8498 0.0222383 55.0466 0.594575 53.6458 1.28414ZM311.656 1.1945C310.39 1.84882 308.132 3.57043 306.637 5.02082C305.143 6.47044 303.135 7.65726 302.175 7.65726C301.216 7.65726 299.691 8.05262 298.788 8.53608C297.883 9.01954 296.537 10.1397 295.794 11.0262C295.052 11.9127 294.217 13.7913 293.938 15.2011C293.658 16.6117 293.828 19.0941 294.315 20.7176C294.859 22.5327 296.154 24.3494 297.674 25.4327L300.149 27.195H323.163C335.821 27.195 347.121 26.9314 348.274 26.6096C349.448 26.2809 350.881 25.0351 351.534 23.774C352.175 22.5366 352.699 20.2671 352.699 18.7294C352.699 16.5902 352.14 15.4118 350.316 13.7109C349.006 12.4888 347.539 11.4752 347.056 11.4591C346.573 11.443 345.213 10.0378 344.034 8.3361C342.71 6.42447 340.61 4.67681 338.539 3.76198C335.672 2.49548 334.639 2.39894 331.383 3.09693C327.862 3.85086 327.36 3.76505 324.688 1.95379C322.517 0.482713 320.823 -0.00305034 317.878 1.43957e-05C315.722 0.00307913 312.922 0.540179 311.656 1.1945ZM56.1928 2.65714C54.505 3.26243 52.0885 4.94191 50.8227 6.38846C49.2791 8.15299 47.5745 9.18503 45.6474 9.52215C44.0671 9.79798 41.8976 10.7848 40.8266 11.7142C39.6981 12.6934 38.7146 14.5299 38.4853 16.0853C38.2068 17.9831 38.5505 19.5009 39.6628 21.2762C40.5267 22.6561 42.1193 24.1218 43.2018 24.5325C44.2834 24.9431 52.3693 25.2795 61.1701 25.2795H77.1722L79.433 23.3794C80.6773 22.3335 81.9078 20.4135 82.1687 19.111C82.4579 17.6659 82.2116 15.9106 81.5366 14.6066C80.9282 13.432 79.3816 12.036 78.0989 11.5058C76.8162 10.9748 74.8868 10.709 73.8113 10.9143C72.2624 11.2101 71.631 10.8545 70.7756 9.20342C70.1819 8.05644 68.4588 6.03295 66.9452 4.70592C65.4324 3.37966 63.7753 2.28938 63.2621 2.28325C62.7496 2.27788 61.6396 2.11162 60.7957 1.91548C59.9518 1.71857 57.8805 2.05262 56.1928 2.65714ZM313.12 2.65791C311.815 3.24864 309.7 4.92275 308.422 6.37697C306.778 8.2457 305.181 9.17661 302.979 9.54821C301.264 9.83783 298.976 10.8929 297.895 11.8943C296.399 13.2788 295.929 14.4671 295.929 16.8653C295.929 18.5984 296.284 20.6801 296.719 21.4907C297.154 22.3021 298.518 23.4859 299.75 24.1226C301.598 25.0765 305.905 25.2795 324.326 25.2795C337.635 25.2795 347.237 24.9723 348.085 24.5194C348.867 24.1011 349.893 22.5933 350.364 21.1682C350.999 19.245 350.993 18.0797 350.341 16.6492C349.857 15.5896 348.62 14.3392 347.592 13.871C346.563 13.4036 345.258 13.0206 344.69 13.0206C344.123 13.0206 343.462 12.2352 343.221 11.2752C342.98 10.3159 341.772 8.56366 340.538 7.38297C339.15 6.05517 337.138 5.08135 335.264 4.83004C333.261 4.56188 331.409 4.85073 329.797 5.68357L327.358 6.94318L324.494 4.65306C322.807 3.30457 320.367 2.20203 318.56 1.97294C316.743 1.74155 314.524 2.02121 313.12 2.65791ZM-95.3206 30.6589C-97.2194 31.5454 -99.5323 32.9827 -100.461 33.8531L-102.15 35.436L-105.271 34.1887C-106.988 33.503 -109.606 32.9413 -111.087 32.9413C-112.569 32.9413 -115.065 33.4769 -116.634 34.1312C-118.203 34.7855 -120.349 36.1225 -121.404 37.1017C-122.459 38.0817 -125.139 39.4715 -127.36 40.191C-130.143 41.0928 -132.012 42.3034 -133.375 44.0878C-134.462 45.5106 -135.535 48.0451 -135.76 49.72C-135.985 51.3949 -135.94 53.9838 -135.66 55.4725C-135.381 56.962 -134.262 59.2376 -133.173 60.5286C-132.084 61.8204 -130.114 63.4585 -128.792 64.1687C-126.64 65.3249 -123.363 65.4375 -97.2385 65.2498L-68.0866 65.0406L-65.2888 63.2072C-63.4008 61.969 -62.0544 60.2313 -61.1477 57.8584C-59.9939 54.8404 -59.9386 53.8942 -60.7587 51.1597C-61.2842 49.4082 -62.7257 47.0315 -63.9624 45.8776C-65.199 44.7245 -67.2028 43.563 -68.4165 43.2963C-69.9331 42.9638 -70.9343 42.062 -71.6194 40.4086C-72.1679 39.0869 -73.6362 36.8451 -74.8821 35.4276C-76.1279 34.0109 -78.536 32.1437 -80.233 31.2787C-81.9299 30.4145 -85.2425 29.5586 -87.5938 29.3771C-90.842 29.1265 -92.697 29.4345 -95.3206 30.6589ZM492.321 29.5862C491.688 29.8329 489.734 30.7041 487.98 31.5224C485.842 32.5199 483.837 34.3902 481.906 37.1898L479.025 41.3694L475.508 41.3724C473.336 41.374 471.021 41.9662 469.454 42.9201C467.989 43.8127 466.293 45.8355 465.443 47.7065C464.633 49.4886 463.968 52.1534 463.966 53.6283C463.963 55.1032 464.733 57.6585 465.675 59.3073C466.618 60.9553 468.604 62.9306 470.088 63.696C472.508 64.9433 475.151 65.0958 495.543 65.1655C515.581 65.2337 518.631 65.0858 521.08 63.9251C522.61 63.2003 524.721 61.4809 525.772 60.1041C526.823 58.728 527.882 56.382 528.125 54.8918C528.366 53.4008 528.336 50.9658 528.057 49.4794C527.778 47.9938 526.628 45.6845 525.502 44.3475C524.376 43.0113 522.059 41.2843 520.354 40.5112C518.649 39.7374 516.362 39.0969 515.272 39.0877C513.894 39.0762 512.54 38.1361 510.821 36.0015C509.463 34.3128 506.927 32.2058 505.187 31.3193C503.446 30.4321 500.098 29.5786 497.747 29.4223C495.396 29.2667 492.954 29.3403 492.321 29.5862ZM-94.9371 32.4732C-96.2029 33.0256 -98.4046 34.4584 -99.8292 35.6575L-102.419 37.838L-104.686 36.5393C-106.018 35.7755 -108.587 35.2414 -110.918 35.243C-113.58 35.2445 -115.766 35.7747 -117.568 36.8558C-119.045 37.7407 -120.944 39.0601 -121.788 39.7872C-122.631 40.5143 -124.78 41.5234 -126.562 42.0298C-128.641 42.6213 -130.484 43.8441 -131.705 45.4424C-132.751 46.8123 -133.816 49.3009 -134.07 50.9727C-134.423 53.2874 -134.111 54.8328 -132.763 57.4592C-131.617 59.6911 -130.047 61.379 -128.308 62.2464C-125.899 63.4485 -122.747 63.5864 -97.6221 63.5849L-69.6209 63.5834L-67.1653 62.087C-65.8143 61.2649 -64.1741 59.5593 -63.5213 58.2974C-62.8676 57.0355 -62.3329 54.8052 -62.3329 53.3418C-62.3329 51.5949 -63.0172 49.8687 -64.3252 48.3164C-65.5788 46.8292 -67.545 45.6424 -69.624 45.1199C-72.4747 44.4027 -72.9926 43.9552 -73.3876 41.8712C-73.64 40.5419 -75.0508 38.1445 -76.523 36.5439C-77.9952 34.9434 -80.3995 33.1329 -81.8655 32.5215C-83.3315 31.9093 -86.3549 31.4228 -88.5835 31.4389C-90.8121 31.4557 -93.6713 31.9208 -94.9371 32.4732ZM489.605 32.808C487.899 33.6041 485.63 35.2935 484.562 36.5616C483.493 37.8296 482.179 39.9274 481.642 41.223L480.665 43.5783L477.096 43.1944C474.368 42.9017 472.948 43.1745 471.074 44.3521C469.726 45.1995 468.112 46.6859 467.487 47.6536C466.862 48.6221 466.142 50.621 465.885 52.096C465.567 53.9264 465.854 55.6235 466.787 57.4439C467.54 58.9104 469.329 60.8933 470.763 61.8495L473.369 63.5887H495.542C513.089 63.5887 518.146 63.3642 519.786 62.5122C520.925 61.92 522.698 60.5362 523.726 59.4368C525.151 57.9143 525.674 56.3613 525.924 52.9158L526.251 48.393L523.219 45.1459C520.52 42.2558 519.729 41.8605 516.035 41.551C512.346 41.2422 511.753 40.9472 510.715 38.8984C510.073 37.6304 508.068 35.5234 506.26 34.2155C503.5 32.2181 502.15 31.799 497.839 31.599C494.024 31.4212 491.908 31.7323 489.605 32.808ZM207.323 48.0061C206.057 48.6719 204.257 49.9139 203.323 50.7643C201.769 52.1787 201.33 52.2277 198.157 51.3413C196.251 50.808 192.807 50.5276 190.504 50.7183C187.716 50.949 185.309 51.732 183.296 53.0621C181.479 54.2635 179.608 56.4333 178.603 58.5066C177.354 61.0856 176.374 62.0763 174.715 62.4402C173.495 62.7076 171.466 63.9795 170.208 65.2659C168.841 66.6611 167.715 68.8011 167.416 70.5702C167.055 72.7086 167.307 74.3253 168.323 76.3664C169.098 77.9233 170.706 79.9084 171.897 80.7781L174.062 82.3602L203.939 82.5778C224.289 82.7257 234.837 82.5204 237.018 81.9342C238.778 81.4607 241.326 79.9667 242.681 78.6136C244.035 77.2613 245.573 74.7229 246.098 72.9737C246.862 70.4254 246.858 69.1014 246.076 66.3148C245.54 64.4016 244.196 61.923 243.09 60.8067C241.983 59.6904 239.967 58.3082 238.609 57.7351C237.251 57.162 235.167 56.6931 233.977 56.6931C232.343 56.6931 231.088 55.8265 228.854 53.1579C227.227 51.2141 224.479 48.9807 222.746 48.1945C220.692 47.2629 217.864 46.771 214.611 46.7802C211.57 46.7886 208.726 47.2667 207.323 48.0061ZM209.7 49.0619C208.476 49.4273 206.148 50.7911 204.527 52.0929L201.579 54.4589L198.095 53.2774C196.179 52.6277 193.501 52.1036 192.144 52.1128C190.788 52.122 188.257 52.774 186.52 53.5617C184.784 54.3493 182.494 56.1521 181.431 57.5673C180.369 58.9832 179.28 60.8642 179.012 61.7476C178.702 62.7697 177.428 63.683 175.512 64.2561C173.855 64.7526 171.79 66.0581 170.924 67.1584C169.895 68.4647 169.348 70.2905 169.348 72.4221C169.348 74.9735 169.839 76.2101 171.597 78.0895L173.845 80.493L206.058 80.2777L238.27 80.0617L240.322 78.1462C241.45 77.0927 242.859 75.2998 243.452 74.1621C244.045 73.0235 244.528 70.7824 244.527 69.1819C244.525 67.5805 243.825 65.1265 242.972 63.7282C242.019 62.1659 240.071 60.5899 237.92 59.6398C235.839 58.7204 233.678 58.2798 232.588 58.5526C231.078 58.9311 230.413 58.4944 228.808 56.0717C227.737 54.455 225.916 52.4407 224.762 51.5964C223.609 50.7521 221.492 49.6572 220.058 49.163C218.624 48.6696 216.207 48.2949 214.688 48.3309C213.168 48.3669 210.924 48.6956 209.7 49.0619ZM-23.4726 120.861C-27.3398 124.549 -35.7671 132.519 -42.1989 138.574C-49.078 145.049 -53.8942 150.165 -53.8942 150.997C-53.8942 151.776 -53.2268 152.769 -52.4105 153.205C-51.5943 153.641 -49.8682 153.998 -48.5747 153.998H-46.2226V191.542V229.085H-59.2643H-72.306V218.449V207.814L-66.7441 205.114C-63.6846 203.629 -60.4327 202.194 -59.5159 201.925C-58.5992 201.657 -56.6329 200.091 -55.1462 198.448C-53.6587 196.804 -52.0438 193.98 -51.5559 192.171C-50.801 189.371 -50.9153 187.912 -52.3231 182.358C-53.2329 178.771 -54.5724 174.817 -55.2996 173.573C-56.1512 172.116 -58.5271 170.366 -61.9708 168.659C-65.0356 167.138 -68.4111 166.028 -69.8764 166.057C-71.3992 166.088 -73.1606 166.792 -74.2323 167.797C-75.92 169.381 -76.141 169.41 -77.7919 168.255C-78.76 167.578 -80.5214 167.024 -81.7075 167.024C-82.8927 167.024 -85.0523 167.52 -86.506 168.127C-87.9605 168.734 -89.8462 170.371 -90.6978 171.766C-91.5884 173.225 -92.2474 175.646 -92.249 177.465C-92.2513 179.397 -92.7192 181.015 -93.4534 181.623C-94.1139 182.171 -95.1496 183.575 -95.7549 184.744C-96.3601 185.912 -96.855 188.62 -96.855 190.762C-96.855 192.903 -96.374 195.805 -95.7856 197.211C-95.1971 198.617 -93.4127 200.761 -91.8194 201.975C-89.2333 203.946 -88.2713 204.195 -82.8804 204.288C-78.2844 204.367 -76.4801 204.717 -75.3393 205.748C-73.9845 206.972 -73.8403 208.162 -73.8403 218.094V229.085H-76.9526H-80.0642L-78.8705 227.381C-78.2138 226.445 -77.6761 224.768 -77.6761 223.654C-77.6761 222.541 -78.3849 220.729 -79.2518 219.629C-80.1179 218.529 -82.1831 217.264 -83.8417 216.818C-85.4995 216.372 -87.1949 215.374 -87.6092 214.601C-88.0242 213.828 -89.5493 212.632 -90.9993 211.945C-92.4484 211.258 -94.4507 210.696 -95.448 210.696C-96.4453 210.696 -98.5005 211.36 -100.016 212.17C-102.018 213.242 -103.644 213.528 -105.968 213.216L-109.166 212.788L-108.956 200.453L-108.746 188.118L-105.861 187.651C-104.273 187.393 -102.765 186.973 -102.508 186.716C-102.251 186.459 -102.253 185.404 -102.513 184.371C-102.773 183.337 -105.605 180.15 -108.807 177.287L-114.628 172.083L-114.372 162.083L-114.116 152.083L-120.406 151.861L-126.696 151.639L-126.927 155.812L-127.158 159.985L-133.295 154.329C-136.67 151.218 -140.123 148.64 -140.966 148.6C-141.81 148.56 -148.37 148.507 -155.542 148.482C-162.715 148.457 -171.518 148.491 -175.105 148.558L-181.626 148.679L-186.612 153.395C-189.355 155.99 -196.432 162.655 -202.339 168.207C-208.246 173.758 -214.373 179.42 -215.956 180.787C-217.718 182.309 -218.833 183.952 -218.833 185.027C-218.833 185.991 -218.287 186.99 -217.619 187.246C-216.952 187.501 -215.226 187.711 -213.783 187.711H-211.161V208.398V229.085H-222.732C-231.649 229.085 -234.23 229.304 -233.984 230.042C-233.729 230.807 -147.035 231 196.071 231C481.922 231 625.871 230.743 625.998 230.234C626.121 229.743 619.632 229.393 607.97 229.262L589.75 229.057V219.669V210.281L593.011 208.585C594.804 207.653 597.685 206.54 599.413 206.114C601.142 205.687 603.903 204.36 605.55 203.165C607.198 201.971 609.323 199.432 610.272 197.524C611.451 195.153 611.998 192.678 611.998 189.703C611.998 186.873 611.465 184.308 610.474 182.369C609.636 180.728 608.601 179.171 608.173 178.906C607.745 178.642 607.395 176.964 607.395 175.177C607.395 172.965 606.75 170.933 605.373 168.813C604.261 167.1 602.395 165.135 601.227 164.446C600.058 163.757 597.603 163.18 595.769 163.166C593.936 163.151 591.572 162.646 590.517 162.043C589.462 161.441 587.443 160.936 586.03 160.921C584.153 160.902 582.892 161.503 581.347 163.154C580.185 164.397 577.798 165.988 576.043 166.69C574.289 167.391 572.081 169.046 571.137 170.367C569.842 172.179 569.406 173.901 569.361 177.367C569.328 179.895 568.773 182.999 568.128 184.263C567.483 185.527 566.732 187.728 566.46 189.155C566.188 190.581 566.347 193.167 566.814 194.901C567.339 196.855 568.811 199.147 570.683 200.927C572.345 202.508 574.122 203.803 574.631 203.805C575.14 203.807 576.833 204.163 578.39 204.595C580.144 205.081 581.414 205.982 581.725 206.959C582 207.828 583.401 209.028 584.837 209.627L587.449 210.717V219.9V229.085H570.63H553.81L553.56 222.764C553.423 219.287 553.429 209.978 553.574 202.077L553.837 187.711H556.357C557.742 187.711 559.287 187.216 559.79 186.61C560.421 185.851 560.47 185.079 559.948 184.12C559.531 183.356 556.746 180.361 553.758 177.464L548.324 172.198V161.948V151.7H541.803H535.282V156.003V160.305L529.367 154.493C524.253 149.467 522.982 148.61 519.97 148.159C518.054 147.872 508.591 147.866 498.941 148.146L481.396 148.654L478.995 150.653C477.675 151.753 470.898 158.03 463.936 164.604C456.975 171.178 449.44 178.35 447.193 180.542C443.604 184.044 443.21 184.722 443.959 186.12C444.626 187.365 445.555 187.711 448.237 187.711H451.662V202.651C451.662 213.778 451.426 217.592 450.74 217.592C450.232 217.592 448.721 216.53 447.38 215.233C445.759 213.664 443.889 212.733 441.798 212.452C439.569 212.154 438.076 212.408 436.676 213.324C435.563 214.053 433.629 214.514 432.249 214.381L429.798 214.144L429.597 184.071L429.397 153.998H431.937C433.335 153.998 434.892 153.585 435.398 153.079C435.905 152.573 436.319 151.593 436.319 150.899C436.319 150.207 433.54 146.973 430.145 143.713L423.971 137.788L424.093 127.696L424.215 117.605H417.8C411.935 117.605 411.377 117.736 411.276 119.137C411.215 119.98 411.129 121.85 411.084 123.292L411.003 125.916L404.954 120.036L398.905 114.157H368.099H337.292L324.474 126.148C317.424 132.744 308.981 140.724 305.71 143.883C301.765 147.694 299.765 150.204 299.765 151.347C299.765 152.294 300.311 153.277 300.979 153.533C301.646 153.789 303.372 153.998 304.814 153.998H307.437V191.542V229.085H292.093H276.75V217.621V206.156L281.616 206.61C284.641 206.893 287.566 206.706 289.352 206.117C290.933 205.596 293.424 204.119 294.89 202.834C296.355 201.549 298.265 199.105 299.134 197.404C300.177 195.362 300.737 192.734 300.781 189.67C300.831 186.246 300.396 184.165 299.121 181.735C298.172 179.924 296.914 178.258 296.328 178.033C295.51 177.72 295.352 176.438 295.648 172.516C295.97 168.249 295.773 166.995 294.454 164.91C293.586 163.536 291.75 161.719 290.374 160.871C288.545 159.743 286.723 159.366 283.584 159.467C280.16 159.577 278.977 159.287 277.717 158.029C276.849 157.162 275.063 156.217 273.748 155.928C272.059 155.558 270.647 155.817 268.942 156.812C267.507 157.649 266.172 159.277 265.65 160.827C264.929 162.964 264.18 163.607 261.492 164.399C259.69 164.931 257.516 165.997 256.663 166.768C255.811 167.538 254.63 169.101 254.041 170.24C253.451 171.379 252.979 173.794 252.993 175.605C253.006 177.417 253.509 179.548 254.108 180.339C255.07 181.606 255.003 182.157 253.55 184.936C252.419 187.101 251.888 189.539 251.859 192.691C251.83 195.929 252.292 198.194 253.422 200.353C254.396 202.215 256.415 204.279 258.568 205.615C260.517 206.824 263.654 207.986 265.541 208.198C267.428 208.411 270.088 208.196 271.451 207.722C272.815 207.247 274.008 206.946 274.104 207.053C274.2 207.16 274.516 211.73 274.806 217.209C275.216 224.967 275.108 227.445 274.315 228.416C273.58 229.317 272.491 229.559 270.391 229.287L267.483 228.91L268.664 227.109C269.314 226.118 269.846 224.077 269.846 222.572C269.846 221.067 269.254 218.935 268.532 217.834C267.809 216.732 265.479 215.005 263.353 213.995C261.228 212.985 258.626 211.647 257.571 211.021C256.216 210.216 254.505 210.013 251.739 210.33C248.558 210.694 247.292 210.464 244.979 209.101C242.57 207.682 241.427 207.497 237.555 207.901L232.978 208.378L233.192 198.236L233.406 188.094L236.224 187.859C237.775 187.73 239.455 187.129 239.959 186.522C240.678 185.657 240.62 185.03 239.689 183.611C239.036 182.616 236.236 179.77 233.466 177.286L228.43 172.77L228.425 162.235L228.419 151.7H221.899H215.378V155.594C215.378 157.737 215.067 159.375 214.687 159.234C214.307 159.094 211.544 156.651 208.547 153.807C205.55 150.963 202.668 148.616 202.142 148.593C201.616 148.57 187.587 148.542 170.967 148.53L140.748 148.51L136.061 153.042C133.483 155.534 125.333 163.206 117.949 170.091C110.565 176.976 104.191 183.431 103.784 184.438C103.227 185.818 103.322 186.443 104.168 186.978C104.785 187.368 106.579 187.692 108.153 187.699C110.541 187.708 111.093 188.019 111.484 189.577C111.742 190.603 111.835 196.175 111.69 201.958L111.428 212.474L106.442 212.556C102.939 212.614 100.77 212.236 99.1535 211.287C97.8877 210.544 95.7527 209.935 94.4087 209.933C93.0646 209.931 91.1659 210.246 90.1893 210.633C89.2127 211.019 87.2703 212.398 85.8725 213.697C84.4755 214.997 83.1805 216.059 82.9957 216.059C82.8108 216.059 82.6597 212.256 82.6597 207.608C82.6597 200.23 82.8307 199.101 84.0022 198.731C84.7402 198.498 86.6566 197.759 88.2592 197.089C89.8625 196.42 92.1908 194.716 93.4328 193.302C94.6756 191.889 96.4677 189.277 97.4159 187.498C98.9265 184.662 99.1336 183.175 99.0876 175.452C99.05 169.016 98.605 165.079 97.4382 160.852C96.5598 157.668 94.7178 152.69 93.3462 149.791C91.9745 146.891 89.3631 143.031 87.5434 141.213C85.2258 138.898 83.5964 137.91 82.1042 137.914C80.9328 137.916 78.9904 138.567 77.7882 139.358C76.5853 140.15 74.5976 142.303 73.3701 144.142C72.1435 145.981 70.1013 150.161 68.8325 153.429C67.5636 156.698 66.0131 161.807 65.3871 164.781C64.7603 167.755 64.2671 173.011 64.2909 176.459C64.3192 180.584 64.7949 183.865 65.6817 186.047C66.4228 187.871 67.9748 190.547 69.1301 191.993C70.2847 193.439 72.079 195.177 73.1162 195.856C74.1534 196.535 76.2493 197.519 77.7744 198.042L80.5469 198.994L80.4188 207.718C80.3091 215.163 80.0836 216.611 78.8799 217.592C78.1043 218.224 77.0832 219.494 76.6122 220.414C76.1411 221.335 75.7552 222.896 75.7552 223.884C75.7552 224.871 76.293 226.445 76.9497 227.381L78.1434 229.085H66.9767H55.8092V191.542V153.998H57.7777C58.8602 153.998 60.4137 153.641 61.2299 153.205C62.0462 152.769 62.7136 151.78 62.7136 151.007C62.7136 150.235 59.9518 147.01 56.5764 143.841L50.4391 138.079V128.115C50.4391 119.737 50.2458 118.077 49.2254 117.687C48.558 117.431 45.8331 117.222 43.1703 117.222C39.4634 117.222 38.2198 117.506 37.8631 118.434C37.6069 119.1 37.3974 121.056 37.3974 122.78V125.916L31.3484 120.036L25.2994 114.157H4.42888H-16.4416L-23.4726 120.861ZM-18.6464 119.217C-20.1002 120.735 -28.1078 128.35 -36.4414 136.138C-44.775 143.926 -51.5927 150.613 -51.5927 150.999C-51.5927 151.407 -42.0562 151.7 -28.7698 151.699L-5.94691 151.698L9.2888 137.445L24.5238 123.191L28.0841 126.561C30.0419 128.416 36.8719 134.83 43.2616 140.816C53.7693 150.659 55.1441 151.7 57.6458 151.7C59.5514 151.7 60.4121 151.354 60.4121 150.589C60.4121 149.978 59.928 149.202 59.3366 148.865C58.7443 148.528 56.2419 146.356 53.7747 144.038L49.2884 139.824L48.9048 129.864L48.5212 119.903L44.11 119.673L39.6989 119.444V124.034C39.6989 126.559 39.3176 128.859 38.8512 129.147C38.3679 129.445 35.1397 126.825 31.3561 123.063L24.7086 116.455H4.35292H-16.0028L-18.6464 119.217ZM324.289 129.322C316.89 136.362 308.864 143.894 306.452 146.059C304.04 148.225 302.066 150.38 302.066 150.848C302.066 151.46 311.312 151.7 334.87 151.7H367.673L382.242 137.948C390.254 130.385 397.328 124.19 397.961 124.182C398.594 124.175 405.822 130.363 414.023 137.935C427.105 150.01 429.246 151.7 431.476 151.7C432.874 151.7 434.017 151.397 434.017 151.026C434.017 150.656 431.514 147.996 428.456 145.116L422.894 139.879L422.51 129.891L422.126 119.903L417.715 119.673L413.304 119.444V124.462C413.304 127.223 413.027 129.481 412.689 129.481C412.351 129.481 408.93 126.55 405.086 122.968L398.098 116.455L367.918 116.488L337.739 116.522L324.289 129.322ZM9.98618 139.685L-3.99988 152.849L-4.01443 180.502C-4.02211 195.711 -4.25534 212.864 -4.53151 218.62L-5.034 229.085H24.2368H53.5077V191.276V153.466L39.3406 139.941C31.5494 132.502 24.9035 126.44 24.5729 126.468C24.243 126.496 17.6785 132.444 9.98618 139.685ZM391.44 132.387C388.065 135.658 381.678 141.665 377.248 145.736L369.193 153.136V190.919V228.701L377.056 228.92L384.919 229.138V212.255V195.372H398.415H411.912L411.599 212.228L411.287 229.085H414.107C416.66 229.085 416.894 228.913 416.579 227.267C416.388 226.268 416.79 224.372 417.473 223.053C418.155 221.735 418.977 220.657 419.298 220.657C419.619 220.657 421.509 219.122 423.497 217.245L427.113 213.834V183.194V152.553L425.686 151.552C424.901 151.001 419.258 145.815 413.146 140.027C407.034 134.239 401.149 128.809 400.068 127.96C398.987 127.111 397.985 126.421 397.84 126.427C397.696 126.433 394.816 129.116 391.44 132.387ZM77.3694 142.543C76.0828 143.829 74.0154 147.018 72.7756 149.63C71.5351 152.244 69.7691 156.623 68.8509 159.362C67.7216 162.73 67.0496 167.07 66.7749 172.77C66.5241 177.975 66.702 182.421 67.2398 184.395C67.7438 186.244 69.4799 189.071 71.3579 191.099C73.1439 193.026 75.8995 195.126 77.4814 195.765L80.3582 196.925V191.816C80.3582 187.546 80.0429 186.293 78.4403 184.195C77.3855 182.813 76.5408 181.057 76.5623 180.292C76.5976 179.078 76.7572 179.12 77.8066 180.623C78.4695 181.572 79.4008 182.347 79.8764 182.347C80.4587 182.347 80.7157 180.156 80.6628 175.643C80.619 171.956 80.7426 168.508 80.9366 167.981C81.1307 167.455 81.5979 167.024 81.9746 167.024C82.3513 167.024 82.6597 170.127 82.6597 173.919C82.6597 177.712 82.9359 180.815 83.2741 180.815C83.6117 180.815 84.6428 179.263 85.5656 177.367C86.4878 175.471 87.5925 173.919 88.0198 173.919C88.4471 173.919 88.7969 174.272 88.7969 174.702C88.7969 175.133 87.416 178.228 85.7283 181.581C83.2903 186.425 82.6597 188.52 82.6597 191.78C82.6597 194.037 82.876 196.1 83.1407 196.364C83.4054 196.628 84.8722 196.322 86.4011 195.684C87.9301 195.047 90.1617 193.595 91.3607 192.459C92.5591 191.322 94.157 189.185 94.9112 187.711C95.6645 186.236 96.5368 183.847 96.8498 182.401C97.162 180.956 97.3967 177.469 97.3699 174.652C97.343 171.835 96.5828 166.64 95.6791 163.106C94.7754 159.572 92.9165 154.261 91.5479 151.302C90.1793 148.343 87.9293 144.636 86.5476 143.065C84.7625 141.035 83.4092 140.207 81.8718 140.207C80.484 140.207 78.8715 141.044 77.3694 142.543ZM-189.766 159.557C-195.256 164.717 -203.438 172.303 -207.948 176.414C-212.458 180.525 -216.263 184.232 -216.403 184.65C-216.566 185.133 -211.229 185.483 -201.827 185.604C-193.67 185.709 -183.297 185.783 -178.776 185.768L-170.556 185.742L-163.816 179.239C-160.109 175.662 -153.411 169.382 -148.932 165.283C-144.452 161.184 -140.482 157.833 -140.11 157.839C-139.737 157.843 -132.914 164.017 -124.947 171.558C-112.922 182.941 -110.016 185.32 -107.831 185.574C-106.385 185.743 -104.989 185.54 -104.731 185.123C-104.474 184.706 -106.918 181.928 -110.164 178.951L-116.065 173.536L-116.049 163.767L-116.034 153.998H-120.637H-125.24V158.596C-125.24 161.489 -125.56 163.193 -126.102 163.193C-126.577 163.193 -130.162 160.303 -134.069 156.773L-141.173 150.352L-160.478 150.263L-179.784 150.174L-189.766 159.557ZM136.739 155.352C133.783 158.189 127.567 164.131 122.928 168.556C118.287 172.981 112.502 178.309 110.071 180.397C107.64 182.484 105.743 184.466 105.855 184.8C105.967 185.134 120.385 185.542 137.895 185.709C155.405 185.874 170.344 185.781 171.092 185.503C171.841 185.224 178.89 178.97 186.759 171.605C194.627 164.239 201.478 158.212 201.983 158.212C202.489 158.212 205.105 160.249 207.798 162.738C210.489 165.228 216.599 170.9 221.373 175.344C226.148 179.787 230.775 183.927 231.658 184.544C232.539 185.161 234.243 185.695 235.444 185.731C236.643 185.766 237.625 185.401 237.625 184.921C237.625 184.44 235.036 181.646 231.872 178.713L226.118 173.381V163.689V153.998H221.551H216.983L217.215 158.164C217.342 160.455 217.194 162.737 216.886 163.235C216.482 163.888 215.909 163.741 214.83 162.708C214.008 161.922 210.723 158.778 207.534 155.722L201.732 150.168L171.924 150.181L142.114 150.194L136.739 155.352ZM480.654 152.275C479.151 153.433 470.618 161.277 461.693 169.705L445.466 185.029L457.195 185.502C463.645 185.762 473.816 186.021 479.796 186.077L490.67 186.178L493.221 184.088C494.625 182.939 501.534 176.56 508.574 169.914C515.615 163.268 521.657 157.831 522 157.833C522.343 157.835 523.832 158.946 525.309 160.302C526.786 161.657 533 167.404 539.118 173.07C545.236 178.738 550.587 183.775 551.009 184.266C551.431 184.756 553.064 185.365 554.639 185.617C556.375 185.896 557.706 185.747 558.021 185.237C558.307 184.775 557.365 183.369 555.926 182.114C554.487 180.859 551.67 178.305 549.666 176.44L546.022 173.048V163.524V153.998H541.803H537.583L537.495 156.872C537.447 158.452 537.468 160.351 537.544 161.091C537.62 161.831 537.123 162.651 536.44 162.913C535.57 163.246 533.175 161.411 528.434 156.778L521.671 150.168H502.53H483.389L480.654 152.275ZM-43.9212 191.542V229.085H-39.3182H-34.7153V212.318V195.551L-32.9892 195.271C-32.0394 195.116 -27.7242 195.098 -23.3997 195.231L-15.5364 195.474V212.279V229.085H-10.8813H-6.2254L-6.47012 191.543L-6.71407 154.002L-25.3176 154L-43.9212 153.998V191.542ZM309.738 191.542V229.085H338.447H367.157L367.024 191.544L366.891 154.003L338.315 154.001L309.738 153.998V191.542ZM-32.4138 170.088V183.171L-25.3176 182.951L-18.2214 182.73V170.088V157.446L-25.3176 157.226L-32.4138 157.006V170.088ZM6.71117 170.088V183.113H13.6156H20.52V170.088V157.063H13.6156H6.71117V170.088ZM28.7032 157.574C28.4217 157.855 28.1916 163.716 28.1916 170.599V183.113H35.4796H42.7675V170.088V157.063H35.9912C32.2636 157.063 28.984 157.293 28.7032 157.574ZM320.478 170.088V183.113H327.383H334.287V170.088V157.063H327.383H320.478V170.088ZM342.667 161.852C342.635 164.486 342.549 170.261 342.476 174.685L342.342 182.73L349.438 182.951L356.535 183.171V170.117V157.063H349.63H342.726L342.667 161.852ZM384.919 170.088V183.113H397.961C405.134 183.113 411.017 182.855 411.034 182.539C411.052 182.222 411.166 176.792 411.289 170.471C411.411 164.15 411.36 158.548 411.175 158.021C410.924 157.306 407.556 157.063 397.879 157.063H384.919V170.088ZM270.229 158.714C269.386 159.175 268.264 160.093 267.736 160.752C267.209 161.413 266.777 162.921 266.777 164.105C266.777 165.994 266.49 166.257 264.437 166.257C263.151 166.257 261.1 166.772 259.881 167.402C258.662 168.032 257.126 169.315 256.467 170.255C255.808 171.193 255.27 173.39 255.27 175.136C255.27 177.122 255.829 179.021 256.765 180.208L258.26 182.107L256.274 185.026C255.182 186.632 254.121 189.424 253.917 191.23C253.713 193.037 253.766 195.392 254.036 196.462C254.305 197.533 255.607 199.64 256.929 201.144C258.252 202.648 260.301 204.378 261.483 204.989C262.665 205.599 265.187 206.099 267.086 206.099C268.987 206.099 271.42 205.699 272.495 205.209C274.181 204.443 274.449 203.833 274.449 200.757C274.449 197.686 274.13 196.958 272.147 195.493C270.882 194.559 269.846 193.46 269.846 193.051C269.846 192.643 270.25 192.308 270.744 192.308C271.238 192.308 272.223 192.833 272.933 193.474C274.127 194.553 274.258 194.234 274.683 189.169C274.935 186.16 275.35 183.49 275.604 183.237C275.859 182.982 276.401 183.282 276.811 183.902C277.225 184.529 277.343 186.983 277.077 189.434C276.763 192.334 276.878 193.84 277.415 193.84C277.863 193.84 278.6 193.15 279.052 192.308C279.504 191.465 280.206 190.775 280.613 190.775C281.02 190.775 281.353 191.123 281.353 191.548C281.353 191.973 280.318 193.749 279.052 195.494C277.786 197.239 276.75 199.608 276.75 200.758C276.75 202.359 277.29 203.072 279.056 203.802C280.392 204.355 283.136 204.609 285.584 204.406C288.782 204.141 290.504 203.503 292.676 201.777C294.255 200.523 296.323 197.979 297.272 196.123C298.236 194.238 298.99 191.384 298.981 189.655C298.972 187.953 298.319 185.142 297.529 183.407C296.741 181.672 295.318 179.708 294.368 179.043C292.75 177.912 292.692 177.577 293.443 173.784C294.134 170.289 294.044 169.339 292.778 166.862C291.971 165.283 290.214 163.424 288.873 162.731C287.042 161.785 285.326 161.588 281.976 161.938C279.357 162.211 277.517 162.104 277.517 161.679C277.517 161.28 276.762 160.251 275.838 159.392C274.915 158.533 273.62 157.84 272.961 157.852C272.303 157.865 271.073 158.253 270.229 158.714ZM-29.3552 159.234C-29.7717 159.375 -30.1124 161.719 -30.1124 164.442V169.395L-25.3176 169.167L-20.5229 168.939L-20.2966 164.223L-20.0703 159.507L-24.3341 159.243C-26.6793 159.097 -28.9394 159.094 -29.3552 159.234ZM9.01263 164.342V169.322H13.6156H18.2185V164.342V159.362H13.6156H9.01263V164.342ZM30.493 164.342V169.322H35.4796H40.4661V164.342V159.362H35.4796H30.493V164.342ZM322.369 162.72C322.092 164.566 321.99 166.722 322.141 167.509C322.373 168.708 323.192 168.957 327.202 169.051L331.986 169.163V164.262V159.362H327.429H322.874L322.369 162.72ZM344.415 164.15L344.644 168.939L349.438 169.167L354.233 169.395V164.379V159.362H349.21H344.187L344.415 164.15ZM387.221 164.379V169.395L392.016 169.167L396.81 168.939L397.039 164.15L397.267 159.362H392.244H387.221V164.379ZM399.495 164.379V169.395L404.29 169.167L409.085 168.939L409.313 164.15L409.541 159.362H404.519H399.495V164.379ZM193.897 167.967C189.467 172.171 182.995 178.216 179.513 181.401L173.184 187.193V208.139V229.085H181.239H189.294V212.228V195.372H202.336H215.378V212.228V229.085H219.24C222.821 229.085 223.045 228.977 222.309 227.603C221.872 226.788 221.515 224.968 221.515 223.559C221.515 222.15 222.019 220.279 222.635 219.4C223.251 218.522 224.764 217.386 225.996 216.876C227.422 216.286 228.74 214.833 229.623 212.878C230.747 210.388 231.019 207.695 231.057 198.649L231.104 187.491L222.282 179.116C217.43 174.51 210.871 168.397 207.706 165.533L201.953 160.324L193.897 167.967ZM515.72 166.086C512.344 169.35 505.872 175.497 501.335 179.746L493.088 187.472V208.278V229.085H522.24H551.392V208.299V187.514L544.68 181.299C540.988 177.881 534.464 171.719 530.184 167.606C525.903 163.493 522.278 160.133 522.128 160.139C521.979 160.146 519.095 162.822 515.72 166.086ZM-144.055 163.464C-145.332 164.789 -149.323 168.633 -152.926 172.004C-156.527 175.375 -161.611 180.147 -164.221 182.609L-168.968 187.084V208.084V229.085H-161.296H-153.625V212.228V195.372H-140.134H-126.644L-126.901 212.229L-127.158 229.086L-123.863 229.085L-120.567 229.085L-121.073 226.391L-121.579 223.697L-116.505 218.63L-111.431 213.562V200.383V187.204L-125.336 174.24C-132.983 167.111 -139.801 161.227 -140.487 161.165C-141.173 161.104 -142.778 162.138 -144.055 163.464ZM582.258 165.225C581.443 166.343 579.257 167.808 577.4 168.482C574.653 169.477 573.7 170.356 572.287 173.199C570.812 176.163 570.678 177.06 571.398 179.124C572.119 181.188 572.004 181.947 570.641 184.15C569.757 185.578 568.844 188.255 568.61 190.101C568.307 192.502 568.581 194.216 569.571 196.123C570.332 197.59 572.135 199.578 573.579 200.541C575.022 201.504 577.541 202.506 579.175 202.766C581.378 203.119 582.428 203.784 583.235 205.344C583.833 206.5 584.882 207.66 585.565 207.922C586.248 208.183 586.952 208.398 587.128 208.398C587.305 208.398 587.449 206.292 587.449 203.719C587.449 199.848 587.118 198.649 585.531 196.765C584.476 195.513 583.613 194.17 583.613 193.781C583.613 193.392 583.937 193.074 584.335 193.074C584.732 193.074 585.27 193.419 585.531 193.84C585.792 194.261 586.329 194.606 586.727 194.606C587.124 194.606 587.449 192.337 587.449 189.562C587.449 185.866 587.705 184.604 588.408 184.841C588.935 185.018 589.425 186.512 589.496 188.161C589.568 189.81 589.653 191.666 589.688 192.287C589.73 193.049 590.152 192.842 590.99 191.647C591.803 190.487 592.489 190.139 592.984 190.634C593.481 191.13 593.054 192.557 591.745 194.789C590.181 197.455 589.75 199.208 589.75 202.91C589.75 205.507 590.053 207.631 590.424 207.631C590.794 207.631 591.511 207.133 592.016 206.524C592.523 205.915 594.787 205.033 597.05 204.564C599.312 204.095 602.301 202.945 603.692 202.009C605.083 201.074 606.976 198.963 607.899 197.319C608.822 195.676 609.791 193.191 610.053 191.798C610.315 190.405 610.16 187.897 609.708 186.224C609.257 184.552 608.035 182.17 606.991 180.931C605.61 179.293 605.092 177.769 605.088 175.341C605.086 173.388 604.495 171.113 603.664 169.855C602.884 168.672 601.495 167.181 600.579 166.539C599.663 165.898 597.282 165.289 595.291 165.186C593.298 165.082 590.914 164.592 589.993 164.095C589.07 163.599 587.287 163.193 586.029 163.193C584.437 163.193 583.29 163.811 582.258 165.225ZM-73.3378 170.087C-75.5909 172.063 -76.0873 172.226 -76.8936 171.256C-77.4083 170.636 -78.948 169.92 -80.3143 169.663C-81.8271 169.38 -83.9069 169.661 -85.6345 170.382C-87.6552 171.225 -88.8106 172.376 -89.6506 174.384C-90.2988 175.934 -90.6188 178.041 -90.361 179.066C-90.0104 180.459 -90.4715 181.588 -92.1853 183.538C-93.4465 184.972 -94.7085 187.374 -94.9908 188.877C-95.3322 190.694 -95.0683 192.747 -94.2014 195.014C-93.4848 196.888 -92.041 199.095 -90.9931 199.917C-89.9452 200.741 -87.8562 201.821 -86.3518 202.316C-84.2698 203.003 -82.9081 203.006 -80.6511 202.331C-78.4532 201.673 -77.2695 201.665 -76.0804 202.301C-75.1982 202.772 -74.3159 202.999 -74.121 202.804C-73.9254 202.608 -73.9937 201.541 -74.2729 200.431C-74.5514 199.321 -75.604 197.765 -76.6112 196.974C-77.6193 196.182 -78.4432 194.928 -78.4432 194.186C-78.4432 192.927 -78.3488 192.921 -77.0401 194.104C-76.2683 194.802 -75.2549 195.372 -74.7869 195.372C-74.2469 195.372 -73.9891 193.766 -74.0804 190.967C-74.1931 187.498 -73.9791 186.561 -73.0731 186.561C-72.194 186.561 -71.9515 187.421 -72.0466 190.201C-72.1149 192.203 -71.8679 193.84 -71.4981 193.84C-71.1284 193.84 -70.4563 193.15 -70.0045 192.308C-69.5526 191.465 -68.8499 190.775 -68.4433 190.775C-68.036 190.775 -67.703 191.115 -67.703 191.53C-67.703 191.945 -68.6973 193.927 -69.9117 195.936C-71.1268 197.944 -72.1387 200.707 -72.1617 202.077C-72.1932 203.978 -71.8771 204.567 -70.8238 204.567C-70.0651 204.567 -68.6213 203.927 -67.6148 203.145C-66.6083 202.364 -64.4043 201.288 -62.7165 200.755C-61.0287 200.221 -58.6559 198.878 -57.4438 197.77C-56.2317 196.662 -54.7642 194.646 -54.1834 193.29C-53.6027 191.934 -53.127 189.827 -53.127 188.608C-53.127 187.389 -53.9786 183.711 -55.0196 180.435C-56.0614 177.159 -57.4952 173.835 -58.2072 173.05C-58.9198 172.264 -59.9149 171.621 -60.4196 171.621C-60.9244 171.621 -62.9604 170.759 -64.9443 169.705C-66.9282 168.652 -69.0386 167.79 -69.6347 167.79C-70.2308 167.79 -71.8971 168.823 -73.3378 170.087ZM-29.682 171.446C-29.919 171.683 -30.1124 173.856 -30.1124 176.275V180.673L-25.817 180.935C-23.4542 181.08 -21.1918 180.993 -20.7883 180.744C-20.3856 180.494 -20.1608 178.253 -20.2889 175.763L-20.5229 171.238L-24.8872 171.127C-27.2877 171.066 -29.4449 171.21 -29.682 171.446ZM9.01263 175.652C9.01263 180.219 9.16071 180.679 10.7387 181C11.6885 181.193 13.6731 181.317 15.1499 181.275L17.8349 181.198L18.0636 176.409L18.2914 171.621L16.5292 171.612C15.5596 171.608 13.4721 171.39 11.8895 171.129L9.01263 170.654V175.652ZM30.7385 172.095C30.5559 172.567 30.5114 174.8 30.6411 177.058L30.8766 181.162L35.4796 181.159L40.0825 181.155V176.196V171.238H35.577C32.9633 171.238 30.9319 171.598 30.7385 172.095ZM322.336 171.557C322.158 171.733 322.013 173.175 322.013 174.764C322.013 176.351 322.353 178.545 322.77 179.64C323.472 181.484 323.823 181.612 327.564 181.384L331.602 181.138L331.828 176.053L332.053 170.969L327.357 171.103C324.773 171.177 322.514 171.382 322.336 171.557ZM344.581 171.557C344.404 171.733 344.26 173.881 344.26 176.331C344.26 180.32 344.44 180.828 345.986 181.19C346.935 181.413 349.093 181.461 350.781 181.296L353.85 180.997L354.077 175.918L354.304 170.84L349.603 171.038C347.016 171.148 344.757 171.382 344.581 171.557ZM387.471 172.095C387.285 172.567 387.239 174.788 387.369 177.031L387.604 181.108L392.207 181.108H396.81L397.037 175.976L397.264 170.845L392.536 171.041C389.936 171.149 387.657 171.624 387.471 172.095ZM399.817 171.556C399.64 171.732 399.495 173.904 399.495 176.382V180.888L404.29 180.66L409.085 180.432V175.835V171.238L404.612 171.236C402.15 171.235 399.993 171.379 399.817 171.556ZM-208.394 188.923C-208.65 189.589 -208.86 198.905 -208.86 209.623V229.112L-190.256 228.907L-171.653 228.701L-171.43 209.93C-171.308 199.606 -171.4 190.383 -171.637 189.434L-172.065 187.711H-189.997C-205.641 187.711 -207.988 187.865 -208.394 188.923ZM113.812 188.923C113.555 189.589 113.346 195.821 113.346 202.773V215.411L115.456 217.467C116.616 218.598 118.419 220.073 119.463 220.745C121.082 221.787 121.338 222.489 121.205 225.526L121.051 229.085H145.967H170.883V208.398V187.711H142.58C117.479 187.711 114.224 187.848 113.812 188.923ZM454.475 188.222C454.194 188.502 453.963 195.352 453.963 203.442C453.963 217.24 454.063 218.278 455.58 220.204C456.645 221.557 457.074 222.963 456.839 224.33C456.642 225.47 456.224 227.007 455.907 227.744C455.404 228.921 455.813 229.085 459.251 229.085H463.169V212.228V195.372H472.375H481.581V212.228V229.085H486.184H490.787V208.398V187.711H472.887C463.041 187.711 454.756 187.94 454.475 188.222ZM6.71117 204.184V217.652L13.4238 217.43L20.1364 217.209V204.184V191.158L13.4238 190.937L6.71117 190.716V204.184ZM28.7278 192.882C28.503 194.041 28.3764 199.989 28.447 206.099L28.5751 217.209L35.6713 217.429L42.7675 217.649V204.213V190.775H35.9529H29.1375L28.7278 192.882ZM320.478 204.184V217.592H327.383H334.287V204.184V190.775H327.383H320.478V204.184ZM342.662 199.748C342.627 204.716 342.47 209.643 342.312 210.696C342.154 211.75 342.201 213.746 342.416 215.131L342.806 217.65L349.478 217.429L356.151 217.209V204.184V191.158L349.438 190.937L342.726 190.716L342.662 199.748ZM509.71 191.286C509.429 191.567 509.199 197.6 509.199 204.695V217.592H522.24H535.282V204.184V190.775H522.752C515.86 190.775 509.991 191.005 509.71 191.286ZM9.01263 198.054V203.034H13.6156H18.2185V198.054V193.074H13.6156H9.01263V198.054ZM31.0047 193.585C30.7232 193.865 30.493 196.106 30.493 198.565V203.034H35.4796H40.4661V198.054V193.074H35.9912C33.5294 193.074 31.2855 193.304 31.0047 193.585ZM322.496 194.798C322.242 195.746 322.029 197.987 322.023 199.778L322.013 203.034H326.999H331.986V198.054V193.074H327.472C323.44 193.074 322.909 193.258 322.496 194.798ZM344.772 193.585C344.49 193.865 344.26 196.106 344.26 198.565V203.034H349.247H354.233V198.054V193.074H349.758C347.296 193.074 345.053 193.304 344.772 193.585ZM511.5 198.091V203.107L516.295 202.88L521.09 202.651L521.318 197.863L521.546 193.074H516.523H511.5V198.091ZM523.519 193.585C523.238 193.865 523.008 196.106 523.008 198.565V203.034H527.994H532.981V198.054V193.074H528.506C526.044 193.074 523.8 193.304 523.519 193.585ZM-196.829 195.947C-197.012 196.263 -197.118 202.038 -197.066 208.781L-196.969 221.04H-190.064H-183.16L-182.95 208.206L-182.74 195.372H-189.617C-193.4 195.372 -196.645 195.631 -196.829 195.947ZM124.086 208.398V221.423H130.991H137.895L138.033 213.569C138.109 209.25 138.166 204.337 138.16 202.651C138.153 200.966 138.091 198.638 138.022 197.479L137.895 195.372H130.991H124.086V208.398ZM146.334 208.427V221.48L153.401 221.26L160.469 221.04L160.32 210.696C160.238 205.007 160.165 199.232 160.157 197.863L160.142 195.372H153.238H146.334V208.427ZM-194.539 197.416C-194.821 197.696 -195.051 199.937 -195.051 202.396V206.865H-190.064H-185.078V201.885V196.905H-189.553C-192.015 196.905 -194.259 197.135 -194.539 197.416ZM-150.879 197.482C-151.123 197.727 -151.323 204.937 -151.323 213.506V229.085H-140.184H-129.044L-129.252 213.186L-129.459 197.288L-139.947 197.163C-145.714 197.095 -150.634 197.238 -150.879 197.482ZM-32.4138 212.966V229.085H-25.1105H-17.8064L-18.0143 213.186L-18.2214 197.288L-25.3176 197.067L-32.4138 196.847V212.966ZM126.932 197.382C126.633 197.682 126.388 199.937 126.388 202.396V206.865H131.411H136.433L136.206 202.077L135.977 197.288L131.727 197.063C129.389 196.939 127.232 197.083 126.932 197.382ZM148.509 201.887L148.252 206.868L153.43 206.867L158.608 206.865V202.358C158.608 198.331 158.424 197.8 156.882 197.387C155.933 197.134 153.718 196.921 151.961 196.916L148.766 196.905L148.509 201.887ZM191.317 200.458C191.048 202.414 190.829 209.637 190.829 216.509V229.004L201.636 229.235C207.579 229.363 212.585 229.324 212.759 229.148C212.934 228.973 213.076 221.856 213.076 213.332C213.076 200.812 212.871 197.757 212.011 197.427C211.424 197.202 206.638 196.991 201.375 196.959L191.805 196.9L191.317 200.458ZM387.733 197.416C387.451 197.696 387.221 204.937 387.221 213.506V229.085H398.309H409.397L409.346 213.569C409.312 202.863 409.026 197.879 408.424 197.491C407.943 197.181 403.206 196.923 397.897 196.916C392.588 196.91 388.013 197.135 387.733 197.416ZM465.471 212.966V229.085H472.375H479.28L479.357 215.485C479.399 208.005 479.486 200.851 479.549 199.586L479.663 197.288L472.567 197.067L465.471 196.847V212.966ZM9.01263 210.313V215.293H13.6156H18.2185V210.313V205.333H13.6156H9.01263V210.313ZM30.493 210.313V215.293H35.4796H40.4661V210.313V205.333H35.4796H30.493V210.313ZM322.326 206.388C322.103 206.968 322.028 209.123 322.158 211.177L322.396 214.91L327.191 215.138L331.986 215.366V210.35V205.333H327.359C324.137 205.333 322.609 205.653 322.326 206.388ZM344.415 210.121L344.644 214.91L349.438 215.138L354.233 215.366V210.35V205.333H349.21H344.187L344.415 210.121ZM511.5 210.35V215.366L516.295 215.138L521.09 214.91L521.318 210.121L521.546 205.333H516.523H511.5V210.35ZM523.519 205.844C523.238 206.124 523.008 208.365 523.008 210.824V215.293H527.994H532.981V210.313V205.333H528.506C526.044 205.333 523.8 205.563 523.519 205.844ZM-195.051 214.144V219.124H-190.064H-185.078V214.144V209.164H-190.064H-195.051V214.144ZM126.388 214.181V219.197L131.182 218.969L135.977 218.741L136.206 213.952L136.433 209.164H131.411H126.388V214.181ZM148.635 214.144V219.197L153.43 218.969L158.225 218.741V214.144V209.547L153.43 209.319L148.635 209.091V214.144ZM-134.701 210.441C-134.983 210.721 -135.213 212.298 -135.213 213.945C-135.213 216.334 -134.953 216.888 -133.925 216.69C-133.217 216.554 -132.699 216.184 -132.774 215.868C-132.85 215.551 -132.911 214.086 -132.911 212.612C-132.911 211.137 -133.199 209.93 -133.55 209.93C-133.902 209.93 -134.42 210.16 -134.701 210.441ZM-23.9751 213.378C-23.9751 215.898 -23.692 216.859 -23.0161 216.634C-22.4715 216.452 -22.0572 215.047 -22.0572 213.378C-22.0572 211.709 -22.4715 210.303 -23.0161 210.121C-23.692 209.896 -23.9751 210.858 -23.9751 213.378ZM234.369 211.132C233.211 211.76 231.564 213.642 230.709 215.315C229.855 216.989 228.629 218.358 227.985 218.358C227.342 218.358 225.935 219.238 224.859 220.312C223.331 221.838 223.016 222.719 223.419 224.334C223.704 225.472 224.481 227.007 225.146 227.744C226.236 228.952 228.233 229.085 245.36 229.085H264.365L265.954 227.066C266.857 225.919 267.544 223.917 267.544 222.434C267.544 220.681 266.925 219.202 265.661 217.94C264.625 216.906 263.126 216.059 262.328 216.059C261.531 216.059 260.259 215.377 259.503 214.542C258.747 213.707 256.911 212.796 255.423 212.518C253.887 212.23 251.616 212.409 250.168 212.932C247.857 213.767 247.376 213.669 245.042 211.891C243.266 210.538 241.538 209.939 239.471 209.961C237.823 209.977 235.527 210.505 234.369 211.132ZM473.91 213.378C473.91 215.274 474.255 216.826 474.677 216.826C475.099 216.826 475.444 215.274 475.444 213.378C475.444 211.481 475.099 209.93 474.677 209.93C474.255 209.93 473.91 211.481 473.91 213.378ZM207.492 213.186C207.278 214.556 207.406 215.998 207.776 216.391C208.145 216.785 208.58 216.957 208.743 216.774C208.905 216.592 209.271 215.15 209.557 213.569C209.959 211.345 209.829 210.696 208.979 210.696C208.331 210.696 207.721 211.717 207.492 213.186ZM403.331 213.761C403.331 215.974 403.651 216.826 404.482 216.826C405.313 216.826 405.633 215.974 405.633 213.761C405.633 211.547 405.313 210.696 404.482 210.696C403.651 210.696 403.331 211.547 403.331 213.761ZM87.7352 215.293C85.6439 217.219 83.67 218.358 82.4257 218.358C81.2489 218.358 79.9608 219.049 79.2512 220.061C78.5945 220.997 78.0567 222.561 78.0567 223.536C78.0567 224.51 78.6144 226.158 79.2957 227.196L80.5346 229.085H99.1183H117.703L118.592 227.133C119.083 226.06 119.483 224.685 119.483 224.078C119.483 223.471 118.13 222.121 116.475 221.078C114.821 220.035 113.255 218.513 112.995 217.694C112.735 216.876 111.385 215.669 109.996 215.01C107.989 214.059 106.868 213.978 104.547 214.618C102.02 215.315 101.333 215.208 99.4619 213.826C98.1033 212.824 96.1371 212.228 94.1808 212.228C91.6108 212.228 90.4801 212.766 87.7352 215.293ZM-99.9236 214.517C-101.487 215.731 -102.584 215.921 -105.862 215.545L-109.882 215.084L-112.767 218.165C-114.352 219.86 -116.427 221.643 -117.376 222.128C-118.326 222.613 -119.103 223.709 -119.103 224.565C-119.103 225.421 -118.745 226.788 -118.308 227.603L-117.514 229.085H-99.8845H-82.2544L-81.0124 226.484C-80.2974 224.987 -79.9698 223.091 -80.2391 222.018C-80.4969 220.992 -81.5954 219.749 -82.6802 219.255C-83.765 218.762 -85.3192 218.358 -86.1332 218.358C-86.9471 218.358 -88.1447 217.549 -88.7929 216.56C-89.4412 215.572 -90.8466 214.365 -91.9153 213.879C-92.9839 213.392 -94.7913 213.002 -95.9321 213.012C-97.0728 213.021 -98.8687 213.699 -99.9236 214.517ZM436.155 216.128C434.386 217.446 433.649 217.563 431.251 216.901C429.444 216.403 427.937 216.385 427.063 216.852C426.312 217.254 425.067 218.362 424.296 219.315C423.524 220.267 421.945 221.657 420.784 222.402C419.263 223.378 418.674 224.389 418.674 226.023C418.674 227.737 419.095 228.393 420.4 228.712C421.349 228.945 429.026 229.038 437.46 228.918L452.794 228.701L453.831 226.538C454.402 225.348 454.662 223.55 454.408 222.544C454.081 221.24 453.079 220.453 450.925 219.809C449.263 219.311 446.958 217.92 445.803 216.716C444.247 215.095 442.995 214.533 440.97 214.552C439.456 214.565 437.308 215.267 436.155 216.128Z" fill="white" fill-opacity="0.55"/>
</svg>
