<svg width="93" height="99" viewBox="0 0 93 99" fill="none" xmlns="http://www.w3.org/2000/svg">
<path fill-rule="evenodd" clip-rule="evenodd" d="M3.82704 0.129852C2.3552 0.360609 1.06285 1.32356 0.466552 2.6341C0.0265839 3.60119 0.0104878 5.23864 0.00536624 49.7911L0 95.9462V97.5155C1.02261 98.8134 1.09992 98.1017 15.3647 89.0834C18.9194 86.8362 22.1296 84.7847 22.4984 84.5245L23.169 84.0515V76.6558C23.169 63.8846 23.2593 63.787 34.937 63.9245C43.2954 64.0231 43.9846 64.3193 44.9879 68.2449C45.3801 69.7789 45.266 69.8186 50.747 66.2467C53.4864 64.4615 57.8551 61.6552 60.4554 60.0102C74.0663 51.3991 76.3954 49.3729 79.9295 43.0692C89.6408 25.7476 77.9941 2.82032 58.235 0.362312C55.8489 0.0653462 5.60691 -0.149345 3.82704 0.129852ZM56.4113 69.3361C55.9823 69.5301 52.284 71.8338 48.1926 74.4554C44.1014 77.077 40.5836 79.2871 40.3756 79.367C40.0417 79.4948 39.9971 78.9639 39.9971 74.8609C39.9971 68.7378 40.5124 69.2363 34.1817 69.2363C27.8485 69.2363 28.5345 68.1232 28.5345 78.398C28.5345 87.6472 28.5345 87 28.5345 87C27.7968 87.452 23.3763 90.2479 21.096 91.7084C13.8734 96.3345 13.0718 96.6311 13.3545 97.9151C13.6855 99.4192 12.4186 98.9436 53.5049 98.8743C92.987 98.9042 91.5 99.5 91.9977 97.9151C92.4955 96.3302 91.7111 95.907 77.9212 84.4137C74.7019 81.7308 69.5437 77.3744 66.4586 74.7334C59.5749 68.8403 58.6296 68.3325 56.4113 69.3361Z" fill="white"/>
</svg>
